<?xml version="1.0" encoding="utf-8"?>
<!-- Generator: Adobe Illustrator 15.1.0, SVG Export Plug-In . SVG Version: 6.00 Build 0)  -->
<!DOCTYPE svg PUBLIC "-//W3C//DTD SVG 1.1//EN" "http://www.w3.org/Graphics/SVG/1.1/DTD/svg11.dtd">
<svg version="1.1" id="Camada_1" xmlns="http://www.w3.org/2000/svg" xmlns:xlink="http://www.w3.org/1999/xlink" x="0px" y="0px"
	 width="1296px" height="1300px" viewBox="0 0 1296 1300" enable-background="new 0 0 1296 1300" xml:space="preserve">
<circle fill="#C12A26" stroke="#000000" stroke-width="60" cx="648.389" cy="656.947" r="609.303"/>
<rect x="258.315" y="150" width="71.685" height="996"/>
<rect x="416.301" y="88" width="71.685" height="1130"/>
<rect x="120.314" y="297.776" width="71.685" height="718.344"/>
<rect x="572.606" y="60.642" width="71.685" height="1185.358"/>
<rect x="726.315" y="80.739" width="71.685" height="1165.261"/>
<rect x="870.479" y="113.947" width="71.685" height="1086"/>
<rect x="1014.063" y="199" width="71.685" height="908"/>
<rect x="1148.201" y="368" width="39.799" height="628"/>
<rect x="14.222" y="404.566" fill="#FFFFFF" stroke="#000000" stroke-width="0.5" width="1268.333" height="464.457"/>
<rect x="76.373" y="476.021" width="1142.165" height="338.297"/>
<path fill="#FFFFFF" d="M351.03,529.613v52.475H211.469c0,0-13.395,15.63,0,27.914c0,1.116,109.417,0,109.417,0
	s30.144,12.282,30.144,26.794v97.135c0,0-4.466,23.445-25.678,26.797c0,1.115-169.708,0-169.708,0s-7.816-2.236-8.933-12.281
	v-40.193c0,0,1.116-7.816,8.933-8.934c1.116,0,135.095,0,135.095,0l-1.116-35.727l-114.999,1.117c0,0-26.797-14.516-27.913-27.914
	c1.116,1.119,0-81.501,0-81.501s6.7-23.448,27.913-25.681C173.509,528.497,351.03,529.613,351.03,529.613z"/>
<path fill="#FFFFFF" d="M406.857,529.115v232.109h65.869v-79.77l106.069,2.232c0,0,27.913-8.93,41.309-38.518
	c0-0.559,0-77.598,0-77.598s-12.28-38.952-34.612-38.457C584.376,528.497,406.857,529.115,406.857,529.115z"/>
<polygon fill="#FFFFFF" points="672.583,529.115 672.583,761.225 729.52,761.225 729.52,682.57 843.398,682.57 843.398,620.047 
	729.52,621.164 729.52,583.204 879.125,583.204 879.125,529.115 "/>
<path fill="#FFFFFF" d="M1085.683,610.001h62.519v-48.01c0,0-7.815-32.804-31.264-33.15c0-0.344-142.909,0-142.909,0
	s-40.191,4.314-41.309,40.504c0,0.463,0,155.655,0,155.655s18.983,34.486,34.612,36.225c2.232,2.85,141.792,0,141.792,0
	s27.913-4.967,39.077-33.992c0,2.232,0-55.826,0-55.826h-63.642v26.797h-90.431l2.232-113.883l88.198,1.116L1085.683,610.001z"/>
<rect x="467.145" y="585.436" width="96.017" height="40.195"/>
</svg>
